<?xml version="1.0" encoding="UTF-8" standalone="no"?>
<!-- Created with Inkscape (http://www.inkscape.org/) -->

<svg
   width="43.485718mm"
   height="7.7109799mm"
   viewBox="0 0 43.485718 7.7109799"
   version="1.1"
   id="svg1"
   xmlns="http://www.w3.org/2000/svg"
   xmlns:svg="http://www.w3.org/2000/svg">
  <defs
     id="defs1" />
  <g
     id="layer1"
     transform="translate(-42.678757,-99.92197)">
    <path
       style="font-size:6.35px;font-family:'Dealyo - Personal use';-inkscape-font-specification:'Dealyo - Personal use';fill:darkgoldenrod;stroke-width:0.264583"
       d="m 43.11904,107.08724 q -0.02481,0 -0.111621,-0.0155 -0.328662,-0.0589 -0.328662,-0.44959 0,-0.23254 0.10542,-0.5395 0.10852,-0.31006 0.275952,-0.64492 0.167431,-0.33486 0.403076,-0.74724 -0.102319,-0.21084 -0.142627,-0.31006 -0.04031,-0.0992 -0.04031,-0.16743 0,-0.0589 0.04031,-0.0589 0.06511,0 0.09922,0.0868 0.0124,0.062 0.139526,0.29766 0.05271,-0.0806 0.136426,-0.21394 0.207739,-0.31936 0.207739,-0.33176 0,-0.006 -0.02481,-0.009 -0.08372,-0.009 -0.186035,-0.0403 -0.480591,-0.16743 -0.648022,-0.61082 -0.04961,-0.12712 -0.04961,-0.39687 0,-0.31936 0.173633,-0.62942 0.176734,-0.31316 0.483692,-0.56741 0.310058,-0.25735 0.700732,-0.41858 0.855762,-0.34726 1.820044,-0.34726 0.685229,0 1.227832,0.19533 0.542603,0.19534 0.883667,0.55811 0.341064,0.35967 0.440283,0.84646 0.02481,0.12402 0.02481,0.31316 0,0.13332 -0.0124,0.26355 -0.0124,0.12712 -0.03721,0.22324 -0.148829,0.71624 -0.63252,1.24954 -0.480591,0.5302 -1.159619,0.81235 -0.675928,0.28215 -1.401465,0.28215 -0.446484,0 -0.806152,-0.10852 -0.359668,-0.10852 -0.595313,-0.25735 -0.440283,0.68523 -0.672827,1.06661 -0.229443,0.38137 -0.229443,0.44958 0,0.0124 0.03101,0.0341 0.05581,0.0372 0.05581,0.0744 0,0.0434 -0.05581,0.0775 -0.05581,0.0341 -0.114722,0.0341 z m 0.02791,-4.06487 q 0,0.37828 0.229444,0.60462 0.232543,0.22324 0.58291,0.25115 0.0155,0 0.288354,-0.38758 0.272852,-0.39067 0.542603,-0.78135 0.272851,-0.39377 0.418579,-0.60771 0,0 0,0 0.306958,-0.43718 0.421679,-0.62632 0.117823,-0.19223 0.117823,-0.21704 l -0.0155,-0.003 q -0.155029,0 -0.458887,0.0465 -0.300757,0.0465 -0.672827,0.16433 -0.458887,0.15193 -0.787549,0.40618 -0.328662,0.25114 -0.499194,0.5519 -0.167432,0.30076 -0.167432,0.59841 z m 1.965772,2.26033 q 0.195337,0 0.269751,-0.009 0.07441,-0.009 0.220141,-0.0496 1.128613,-0.29456 1.776636,-1.26194 0.204639,-0.30696 0.328662,-0.68833 0.124023,-0.38137 0.124023,-0.69763 0,-0.41238 -0.241845,-0.69453 -0.241846,-0.28526 -0.654224,-0.43408 -0.378271,-0.12093 -0.449585,-0.12093 h -0.0062 q 0,0.003 0.0062,0.031 0.0155,0.0868 0.0155,0.13022 0,0.20774 -0.173633,0.57051 -0.170532,0.35967 -0.570507,0.96118 -0.396875,0.60152 -1.082105,1.53789 -0.186035,0.26045 -0.347266,0.47749 -0.05891,0.0806 -0.05891,0.0868 0,0.0372 0.241846,0.0992 0.244946,0.062 0.483691,0.062 z m 6.229077,-0.43718 q -0.02481,0 -0.10232,-0.0124 -0.235644,-0.0372 -0.390673,-0.21704 -0.15503,-0.18294 -0.15503,-0.4775 0,-0.20153 0.03721,-0.38137 0.04031,-0.18293 0.10232,-0.38137 0.03721,-0.12402 0.03721,-0.14883 0,-0.006 -0.0031,-0.006 -0.02481,0 -0.151929,0.0682 -0.127124,0.0682 -0.251147,0.14883 -0.365869,0.24185 -0.731738,0.54571 -0.362769,0.30385 -0.542603,0.50849 -0.124023,0.14263 -0.198437,0.19844 -0.07131,0.0558 -0.130225,0.0558 -0.148828,0 -0.148828,-0.17363 0,-0.17674 0.232544,-0.65113 0.235644,-0.47439 0.641821,-1.13171 0.406177,-0.65732 0.902271,-1.35806 0.350366,-0.48679 0.703833,-0.93327 0.353466,-0.44959 0.418579,-0.493 0.133325,-0.08371 0.294555,-0.08371 0.179834,0 0.300757,0.09302 0.124024,0.0899 0.124024,0.22324 0,0.093 -0.10542,0.27285 -0.10542,0.17673 -0.36897,0.5302 -0.26355,0.35037 -0.809253,1.0449 -0.434082,0.5581 -0.750342,0.97048 -0.31626,0.40928 -0.483691,0.63252 -0.167432,0.22324 -0.167432,0.23254 0.03101,-0.0124 0.294556,-0.22324 0.362768,-0.28215 0.626318,-0.47749 0.26355,-0.19844 0.418579,-0.27905 0.07441,-0.0372 0.164331,-0.0372 0.173633,0 0.269751,0.10852 0.09612,0.10542 0.09612,0.29766 0,0.0682 -0.03411,0.21394 -0.03101,0.14573 -0.09302,0.39377 -0.10852,0.42478 -0.10852,0.4992 0,0.20154 0.186035,0.20154 0.195337,0 0.489893,-0.18294 0.294555,-0.18603 0.697632,-0.5612 0.120922,-0.10853 0.151928,-0.10853 0.04031,0.006 0.04031,0.031 0,0.0372 -0.108521,0.14263 -0.440283,0.42478 -0.725537,0.62322 -0.285254,0.19533 -0.539502,0.24494 -0.09302,0.0372 -0.130224,0.0372 z m 1.668115,0 q -0.114722,0 -0.232544,-0.0651 -0.117822,-0.0651 -0.195337,-0.20464 -0.07751,-0.13953 -0.07751,-0.35037 0,-0.33796 0.176733,-0.65732 0.179834,-0.32246 0.480591,-0.524 0.303857,-0.20464 0.654223,-0.20774 l 0.06201,-0.003 q 0.114722,0 0.192236,0.0248 0.07751,0.0248 0.195337,0.0837 0.02481,0.0124 0.04031,0.0186 0.09922,-0.0775 0.170532,-0.10852 0.07441,-0.031 0.192237,-0.031 0.16123,0 0.263549,0.0806 0.10542,0.0806 0.10542,0.20774 0,0.0496 -0.04651,0.14883 -0.04341,0.0992 -0.139526,0.28835 -0.155029,0.31006 -0.241846,0.5209 -0.08682,0.21084 -0.08682,0.36587 0,0.0775 0.0217,0.12712 0.0217,0.0496 0.06511,0.0589 0.0062,0 0.02791,0 0.03411,0.003 0.05581,0.003 0.114722,0 0.226343,-0.0465 0.111621,-0.0465 0.275952,-0.17053 0.164331,-0.12403 0.430982,-0.36587 0.244946,-0.22635 0.288354,-0.22635 h 0.0031 q 0.03721,0.003 0.03721,0.0248 0,0.0434 -0.145728,0.18913 -0.306958,0.31006 -0.523999,0.4837 -0.21394,0.17363 -0.396875,0.24804 -0.09302,0.0372 -0.139526,0.0465 -0.04341,0.009 -0.164331,0.009 -0.120923,0 -0.164331,-0.006 -0.04031,-0.009 -0.114722,-0.0434 -0.303857,-0.14882 -0.387573,-0.50849 -0.0031,-0.0124 -0.0124,-0.0372 -0.0186,-0.0589 -0.0248,-0.0589 -0.0031,0 -0.04651,0.0589 -0.148828,0.19844 -0.31936,0.37207 -0.167432,0.17053 -0.359668,0.22944 -0.08992,0.0248 -0.145728,0.0248 z m 0.08992,-0.23255 q 0.03411,0 0.120923,-0.0465 0.08682,-0.0496 0.21394,-0.16123 0.130225,-0.11163 0.319361,-0.33177 0.0062,-0.006 0.0155,-0.0217 0.07751,-0.0899 0.09302,-0.12092 0.0186,-0.0341 0.04961,-0.12713 0.07441,-0.22944 0.182934,-0.5116 v -0.003 q 0,-0.0124 -0.03101,-0.0124 -0.08372,0 -0.217041,0.0527 -0.186035,0.093 -0.375171,0.31936 -0.186035,0.22324 -0.306958,0.47439 -0.120923,0.24805 -0.120923,0.39378 0,0.0961 0.05581,0.0961 z m 4.836914,0.23255 q -0.07751,0 -0.145728,-0.0155 -0.235644,-0.0527 -0.375171,-0.24185 -0.139526,-0.19224 -0.139526,-0.41238 0,-0.11472 0.05271,-0.29765 0.05581,-0.18604 0.124023,-0.35967 0.07131,-0.17364 0.07131,-0.17364 l -0.0062,-0.003 q -0.08682,0 -0.424781,0.26976 -0.337964,0.26975 -0.865063,0.78754 -0.241846,0.23565 -0.387573,0.33487 -0.145728,0.0992 -0.257349,0.0992 -0.09612,0 -0.170532,-0.0558 -0.07751,-0.0558 -0.07751,-0.13953 0,-0.0868 0.09922,-0.25115 0.09612,-0.16433 0.313159,-0.48679 0.226343,-0.33486 0.341065,-0.5178 0.195336,-0.30386 0.229443,-0.32866 0.04961,-0.0558 0.133325,-0.0868 0.08372,-0.0341 0.176733,-0.0341 0.151929,0 0.266651,0.0806 0.114722,0.0775 0.114722,0.21084 0,0.062 -0.0217,0.13023 -0.0217,0.0651 -0.07751,0.19223 -0.0186,0.0434 -0.02791,0.0651 0.04961,-0.0372 0.15503,-0.12093 0.251147,-0.20154 0.418579,-0.30385 0.170532,-0.10232 0.322461,-0.10232 0.151929,0 0.26355,0.10232 0.114721,0.10231 0.114721,0.27285 0,0.11162 -0.03721,0.25114 -0.03411,0.13643 -0.102319,0.34727 -0.05271,0.17053 -0.08062,0.26975 -0.02481,0.0961 -0.02481,0.16433 0,0.15503 0.179834,0.15503 0.124023,0 0.297656,-0.062 0.173633,-0.062 0.322461,-0.16123 0.06511,-0.0465 0.294556,-0.24185 0.167431,-0.14572 0.260449,-0.21704 0.09302,-0.0744 0.117822,-0.0744 0.03101,0 0.04341,0.0248 0,0.0279 -0.241846,0.26665 -0.241846,0.23875 -0.36897,0.33177 -0.223242,0.15503 -0.455786,0.24494 -0.232544,0.0868 -0.42478,0.0868 z m 1.708423,0 q -0.04341,0 -0.139526,-0.0403 -0.148829,-0.0558 -0.223243,-0.18293 -0.07441,-0.13023 -0.07441,-0.43099 0,-0.13332 0.0093,-0.19843 0.0062,-0.0682 0.03721,-0.18294 0.127124,-0.48989 0.449585,-1.0511 0.325562,-0.5612 0.945679,-1.36115 0.0155,-0.0186 0.05581,-0.0713 0.176734,-0.22324 0.176734,-0.23254 0,-0.0124 -0.08682,-0.0124 -0.10852,0 -0.542602,0.0248 -0.434082,0.0217 -0.713135,0.0434 0.0062,0.006 0.0155,0.0124 0.05891,0.0465 0.05891,0.0713 0,0.0465 -0.08372,0.0465 -0.09302,0 -0.241845,-0.031 -0.148829,-0.031 -0.195337,-0.062 -0.08372,-0.0558 -0.08372,-0.12713 0,-0.0713 0.08062,-0.10852 0.08061,-0.0403 0.291455,-0.062 0.21084,-0.0248 0.564307,-0.0434 0.356567,-0.0186 1.16582,-0.0496 0.03411,-0.0403 0.09302,-0.11782 0.229443,-0.28525 0.316259,-0.38447 0.08682,-0.10232 0.145728,-0.13333 0.06201,-0.0341 0.148828,-0.0341 0.136426,0 0.241846,0.0868 0.10542,0.0837 0.10542,0.20464 0,0.093 -0.108521,0.33797 -0.0217,0.0496 -0.0217,0.0527 0,0.006 0.09612,0.0124 0.09922,0.006 0.220142,0.006 0.682129,0.0186 1.196826,0.0992 0.517798,0.0775 0.682129,0.18603 0.05581,0.0341 0.08682,0.0899 0.03411,0.0558 0.03411,0.10542 0,0.0713 -0.06821,0.0713 -0.03101,0 -0.04341,-0.0186 -0.0124,-0.0217 -0.0186,-0.0558 -0.0093,-0.0403 -0.0217,-0.0465 -0.151929,-0.0837 -0.939477,-0.13953 -0.241846,-0.0186 -0.691431,-0.031 -0.446485,-0.0124 -0.716235,-0.0124 -0.117823,0.15503 -0.617017,0.77824 -0.675928,0.84646 -0.855762,1.08521 -0.244946,0.34106 -0.449585,0.68523 -0.204638,0.34106 -0.282153,0.5395 -0.09302,0.27595 -0.09302,0.42788 0,0.0744 0.0155,0.10542 0.0186,0.0279 0.09922,0.0899 0.0155,0.0155 0.0155,0.0248 0,0.006 -0.0093,0.0186 0,0.0155 -0.02791,0.0155 z m 1.708422,0 q -0.142627,0 -0.229443,-0.0248 -0.198437,-0.0682 -0.310059,-0.23874 -0.111621,-0.17053 -0.111621,-0.39068 0,-0.17673 0.07441,-0.35346 0.07751,-0.18604 0.26355,-0.40618 0.189136,-0.22324 0.350366,-0.31936 0.213941,-0.10542 0.331763,-0.10542 0.06201,0 0.111621,0.0217 0.04961,0.0186 0.108521,0.0558 0.08682,0.0558 0.133325,0.0558 0.15813,0 0.257349,0.13332 0.09922,0.13333 0.09922,0.33486 0,0.12713 -0.03101,0.23875 -0.03101,0.10852 -0.102319,0.28215 0.0093,0.003 0.02481,0.006 0.07131,0.0124 0.136426,0.0124 0.201538,0 0.514697,-0.0713 0.313159,-0.0744 0.601514,-0.18913 0.0093,-0.003 0.0217,-0.006 0.04341,-0.0155 0.05581,-0.0155 0.0124,0 0.0279,0.0155 0.0186,0.0155 0.0186,0.0217 0,0.031 -0.220142,0.12402 -0.217041,0.0899 -0.499194,0.16433 -0.282153,0.0713 -0.496094,0.0713 -0.07441,0 -0.198437,-0.003 -0.03721,-0.003 -0.05581,-0.003 -0.173633,0.24804 -0.390674,0.41548 -0.217041,0.16433 -0.486792,0.17363 z m 0.08992,-0.31006 q 0.07441,0 0.204639,-0.0713 0.130225,-0.0744 0.251148,-0.21394 l 0.06511,-0.0837 q -0.164331,-0.093 -0.223242,-0.16123 -0.05891,-0.0713 -0.127124,-0.23254 -0.08992,0.11782 -0.173633,0.30075 -0.08062,0.17984 -0.08062,0.31316 0,0.0806 0.0186,0.11472 0.0217,0.0341 0.06511,0.0341 z m 0.595313,-0.48369 q 0.0093,0 0.06511,-0.10852 0.09612,-0.19534 0.09612,-0.35657 0,-0.13332 -0.03721,-0.22014 -0.03721,-0.0868 -0.09922,-0.0868 -0.04031,0 -0.111621,0.0682 -0.07131,0.0682 -0.133326,0.17673 -0.0248,0.0403 -0.0248,0.11782 0,0.12713 0.05581,0.22634 0.0279,0.0527 0.09302,0.11783 0.06821,0.0651 0.09612,0.0651 z m 1.178223,0.79375 q -0.06511,0 -0.130225,-0.0279 -0.05581,-0.0217 -0.08992,-0.0744 -0.03721,-0.0527 -0.03721,-0.10852 0,-0.10852 0.08682,-0.26665 0.08372,-0.15813 0.350367,-0.5333 0.207739,-0.28836 0.297656,-0.44649 0.09302,-0.16123 0.148828,-0.28835 0.03721,-0.0837 0.06821,-0.11782 0.08372,-0.0744 0.21394,-0.0744 0.167432,0 0.294556,0.11162 0.130225,0.10852 0.130225,0.26355 0,0.0775 -0.05891,0.22014 -0.05891,0.13953 -0.05891,0.13953 0,0 0.251148,-0.17053 0.254248,-0.17363 0.337964,-0.21704 0.07441,-0.0341 0.158129,-0.0341 0.127124,0 0.217041,0.0713 0.08992,0.0713 0.08992,0.18914 0,0.11472 -0.05891,0.24495 -0.05891,0.13022 -0.201538,0.37517 0.03101,-0.031 0.08682,-0.0899 0.291455,-0.31316 0.713134,-0.69763 0.09922,-0.0837 0.223243,-0.20154 0.10542,-0.0992 0.151928,-0.12402 0.04651,-0.0279 0.127124,-0.0279 0.142627,0 0.235645,0.0899 0.09612,0.0899 0.09612,0.22634 0,0.0775 -0.04031,0.19224 -0.03721,0.11472 -0.117822,0.31006 -0.08992,0.21704 -0.136426,0.35346 -0.04341,0.13643 -0.04341,0.23875 0,0.20464 0.223242,0.20774 0.176734,0 0.390674,-0.10232 0.213941,-0.10542 0.595313,-0.43408 0.127124,-0.11162 0.179834,-0.14883 0.05581,-0.0403 0.08061,-0.0403 0.04651,0.006 0.04651,0.0279 0,0.0248 -0.04961,0.0806 -0.04961,0.0558 -0.179834,0.18294 -0.344165,0.33486 -0.641821,0.49299 -0.294556,0.15813 -0.551904,0.15813 -0.241846,0 -0.409278,-0.12402 -0.167431,-0.12403 -0.220141,-0.26045 -0.05891,-0.15813 -0.05891,-0.32246 0,-0.14263 0.04031,-0.28216 0.04341,-0.13952 0.10232,-0.28835 0.0248,-0.0682 0.0248,-0.0744 v -0.003 q -0.03721,0 -0.16123,0.12713 -0.120923,0.12402 -0.359668,0.38757 -0.266651,0.29766 -0.42478,0.46199 -0.15813,0.16123 -0.235645,0.19533 -0.05581,0.031 -0.09302,0.031 -0.08682,0 -0.176733,-0.0806 -0.08682,-0.0806 -0.08682,-0.21395 0,-0.11782 0.07441,-0.27905 0.07441,-0.16433 0.182934,-0.36587 0.06511,-0.11472 0.06511,-0.12712 l -0.0031,-0.003 q -0.05891,0 -0.403076,0.26355 -0.341065,0.26045 -0.598413,0.5364 -0.226343,0.25115 -0.381372,0.36277 -0.151929,0.10852 -0.275952,0.10852 z m 7.159252,2.24172 q -0.02481,0 -0.111621,-0.0155 -0.328662,-0.0589 -0.328662,-0.44959 0,-0.23254 0.105419,-0.5395 0.108521,-0.31006 0.275953,-0.64492 0.167431,-0.33486 0.403076,-0.74724 -0.10232,-0.21084 -0.142627,-0.31006 -0.04031,-0.0992 -0.04031,-0.16743 0,-0.0589 0.04031,-0.0589 0.06511,0 0.09922,0.0868 0.0124,0.062 0.139526,0.29766 0.05271,-0.0806 0.136426,-0.21394 0.207739,-0.31936 0.207739,-0.33176 0,-0.006 -0.02481,-0.009 -0.08372,-0.009 -0.186035,-0.0403 -0.480591,-0.16743 -0.648022,-0.61082 -0.04961,-0.12712 -0.04961,-0.39687 0,-0.31936 0.173633,-0.62942 0.176734,-0.31316 0.483692,-0.56741 0.310058,-0.25735 0.700732,-0.41858 0.855762,-0.34726 1.820044,-0.34726 0.685229,0 1.227832,0.19533 0.542602,0.19534 0.883667,0.55811 0.341064,0.35967 0.440283,0.84646 0.0248,0.12402 0.0248,0.31316 0,0.13332 -0.0124,0.26355 -0.0124,0.12712 -0.03721,0.22324 -0.148828,0.71624 -0.632519,1.24954 -0.480591,0.5302 -1.159619,0.81235 -0.675928,0.28215 -1.401465,0.28215 -0.446484,0 -0.806152,-0.10852 -0.359668,-0.10852 -0.595313,-0.25735 -0.440283,0.68523 -0.672827,1.06661 -0.229443,0.38137 -0.229443,0.44958 0,0.0124 0.031,0.0341 0.05581,0.0372 0.05581,0.0744 0,0.0434 -0.05581,0.0775 -0.05581,0.0341 -0.114721,0.0341 z m 0.02791,-4.06487 q 0,0.37828 0.229443,0.60462 0.232544,0.22324 0.582911,0.25115 0.0155,0 0.288354,-0.38758 0.272852,-0.39067 0.542603,-0.78135 0.272851,-0.39377 0.418579,-0.60771 0,0 0,0 0.306958,-0.43718 0.421679,-0.62632 0.117823,-0.19223 0.117823,-0.21704 l -0.0155,-0.003 q -0.15503,0 -0.458887,0.0465 -0.300757,0.0465 -0.672827,0.16433 -0.458887,0.15193 -0.787549,0.40618 -0.328662,0.25114 -0.499194,0.5519 -0.167432,0.30076 -0.167432,0.59841 z m 1.965771,2.26033 q 0.195337,0 0.269751,-0.009 0.07442,-0.009 0.220142,-0.0496 1.128613,-0.29456 1.776636,-1.26194 0.204638,-0.30696 0.328662,-0.68833 0.124023,-0.38137 0.124023,-0.69763 0,-0.41238 -0.241845,-0.69453 -0.241846,-0.28526 -0.654224,-0.43408 -0.378272,-0.12093 -0.449585,-0.12093 h -0.0062 q 0,0.003 0.0062,0.031 0.0155,0.0868 0.0155,0.13022 0,0.20774 -0.173633,0.57051 -0.170532,0.35967 -0.570508,0.96118 -0.396875,0.60152 -1.082104,1.53789 -0.186035,0.26045 -0.347266,0.47749 -0.05891,0.0806 -0.05891,0.0868 0,0.0372 0.241846,0.0992 0.244946,0.062 0.483691,0.062 z m 3.875733,-0.43718 q -0.04651,0 -0.09612,-0.0217 -0.173633,-0.0775 -0.173633,-0.29765 0,-0.22324 0.182935,-0.5209 0.179834,-0.29766 0.626318,-0.75344 0.161231,-0.16433 0.235645,-0.22945 0.07441,-0.0651 0.130224,-0.0868 0.05891,-0.0217 0.15503,-0.0217 0.16123,0 0.257348,0.0837 0.09922,0.0806 0.09922,0.19844 0,0.0806 -0.06511,0.18913 -0.06201,0.10852 -0.223242,0.29766 -0.0093,0.009 -0.0093,0.0124 h 0.0031 q 0.0093,0 0.04961,-0.0248 0.145727,-0.0899 0.362768,-0.17674 0.217041,-0.0899 0.285254,-0.0899 0.07441,0 0.145728,0.0589 0.07131,0.0589 0.07131,0.13952 0,0.13333 -0.179834,0.44339 -0.04341,0.0713 -0.04341,0.11162 0,0.0713 0.117822,0.0713 0.151929,0 0.384473,-0.10542 0.232544,-0.10542 0.486792,-0.24494 0.08061,-0.0434 0.08372,-0.0434 0.04341,0 0.04961,0.0372 0,0.0217 -0.111621,0.10232 -0.10852,0.0806 -0.272852,0.17054 -0.164331,0.0899 -0.344165,0.15503 -0.179834,0.062 -0.32246,0.062 -0.213941,0 -0.341065,-0.10542 -0.124023,-0.10542 -0.124023,-0.29146 0,-0.13952 0.114721,-0.32556 0.0186,-0.031 0.0186,-0.0341 l -0.0031,-0.003 q -0.04031,0 -0.21084,0.11783 -0.170532,0.11472 -0.418579,0.32246 -0.244946,0.20774 -0.508496,0.47129 -0.31626,0.31005 -0.350366,0.32246 -0.03411,0.009 -0.06201,0.009 z m 3.209108,0 q -0.142627,0 -0.229444,-0.0248 -0.198437,-0.0682 -0.310058,-0.23874 -0.111622,-0.17053 -0.111622,-0.39068 0,-0.17673 0.07441,-0.35346 0.07751,-0.18604 0.263549,-0.40618 0.189136,-0.22324 0.350367,-0.31936 0.21394,-0.10542 0.331762,-0.10542 0.06201,0 0.111621,0.0217 0.04961,0.0186 0.108521,0.0558 0.08682,0.0558 0.133325,0.0558 0.15813,0 0.257349,0.13332 0.09922,0.13333 0.09922,0.33486 0,0.12713 -0.03101,0.23875 -0.03101,0.10852 -0.10232,0.28215 0.0093,0.003 0.02481,0.006 0.07131,0.0124 0.136426,0.0124 0.201538,0 0.514697,-0.0713 0.313159,-0.0744 0.601514,-0.18913 0.0093,-0.003 0.0217,-0.006 0.04341,-0.0155 0.05581,-0.0155 0.0124,0 0.02791,0.0155 0.0186,0.0155 0.0186,0.0217 0,0.031 -0.220142,0.12402 -0.217041,0.0899 -0.499194,0.16433 -0.282153,0.0713 -0.496094,0.0713 -0.07441,0 -0.198437,-0.003 -0.03721,-0.003 -0.05581,-0.003 -0.173632,0.24804 -0.390674,0.41548 -0.217041,0.16433 -0.486791,0.17363 z m 0.08992,-0.31006 q 0.07441,0 0.204638,-0.0713 0.130225,-0.0744 0.251148,-0.21394 l 0.06511,-0.0837 q -0.164331,-0.093 -0.223242,-0.16123 -0.05891,-0.0713 -0.127124,-0.23254 -0.08992,0.11782 -0.173633,0.30075 -0.08061,0.17984 -0.08061,0.31316 0,0.0806 0.0186,0.11472 0.0217,0.0341 0.06511,0.0341 z m 0.595312,-0.48369 q 0.0093,0 0.06511,-0.10852 0.09612,-0.19534 0.09612,-0.35657 0,-0.13332 -0.03721,-0.22014 -0.03721,-0.0868 -0.09922,-0.0868 -0.04031,0 -0.111621,0.0682 -0.07131,0.0682 -0.133326,0.17673 -0.0248,0.0403 -0.0248,0.11782 0,0.12713 0.05581,0.22634 0.02791,0.0527 0.09302,0.11783 0.06821,0.0651 0.09612,0.0651 z m 0.772046,0.79375 q -0.06201,0 -0.09612,-0.0341 -0.04341,-0.0403 -0.04341,-0.0868 0,-0.14573 0.257348,-0.41548 0.167432,-0.16123 0.362769,-0.31626 0.0124,-0.009 0.0186,-0.0124 0,-0.0124 0.0031,-0.0341 0.02791,-0.27595 0.06821,-0.46509 0.04031,-0.18914 0.148828,-0.32866 0.10852,-0.14263 0.306958,-0.14263 0.10852,0 0.204639,0.0589 0.09612,0.0589 0.09612,0.15503 0,0.0806 -0.0217,0.21704 l -0.0062,0.0434 q 0.0062,-0.003 0.02791,-0.0155 0.536401,-0.28836 0.579809,-0.28836 0.03411,0 0.08061,0.031 0.04651,0.031 0.04651,0.0775 0,0.0403 -0.124023,0.12713 -0.120923,0.0837 -0.353467,0.22634 -0.176733,0.10852 -0.26355,0.16743 -0.08372,0.0558 -0.08992,0.0806 -0.03101,0.22944 -0.03101,0.41858 0,0.13642 0.0217,0.21394 0.0217,0.0775 0.04031,0.0992 0.0217,0.0186 0.06511,0.0186 0.08062,0 0.195337,-0.0527 0.08682,-0.0434 0.251148,-0.20464 0.167431,-0.16433 0.282153,-0.31936 0.108521,-0.15503 0.127124,-0.15503 0.0093,-0.003 0.0186,-0.003 0.0155,0 0.031,0.0124 0.0155,0.009 0.0155,0.0248 0,0.0248 -0.127124,0.21084 -0.124023,0.18293 -0.204638,0.26975 -0.151929,0.18293 -0.350366,0.30076 -0.195337,0.11472 -0.359668,0.11472 -0.164331,0 -0.310059,-0.0992 -0.142627,-0.0992 -0.229443,-0.27595 -0.0093,-0.0217 -0.02481,-0.0558 -0.04031,-0.10542 -0.05271,-0.10542 -0.0279,0 -0.285254,0.22324 -0.260449,0.22014 -0.260449,0.25735 0,0.006 0.0062,0.0155 0.0155,0.0155 0.0155,0.0372 -0.0124,0.009 -0.03721,0.009 z m 1.358057,2.78743 q -0.260449,0 -0.390673,-0.14883 -0.133326,-0.14573 -0.133326,-0.35037 0,-0.35657 0.31626,-0.76584 0.31626,-0.40928 0.803052,-0.77205 0.483691,-0.36587 1.0573,-0.66042 l 0.217041,-0.11163 q 0.05891,-0.12402 0.16123,-0.34106 0.155029,-0.32556 0.155029,-0.33796 0,0 -0.10852,0.13952 -0.189136,0.25115 -0.384473,0.40928 -0.192236,0.15503 -0.409277,0.15503 -0.251148,0 -0.415479,-0.18914 -0.16123,-0.19223 -0.16123,-0.49299 0,-0.26045 0.09302,-0.48989 0.09302,-0.22945 0.244947,-0.36587 0.155029,-0.13953 0.322461,-0.13953 0.10542,0 0.170532,0.0651 0.06821,0.062 0.06821,0.13953 0,0.0372 -0.08682,0.24495 -0.06821,0.16123 -0.114721,0.28525 -0.04651,0.12402 -0.08062,0.26355 -0.03411,0.13643 -0.03411,0.25115 0,0.17673 0.07751,0.17673 0.09922,0 0.310058,-0.16433 0.213941,-0.16743 0.412378,-0.42788 0.09302,-0.12712 0.288355,-0.41548 0.195337,-0.28835 0.226342,-0.34726 0.05581,-0.11163 0.164332,-0.11163 0.127124,0 0.210839,0.12713 0.08682,0.12402 0.08682,0.36277 0,0.17673 -0.08372,0.57671 -0.03101,0.13642 -0.03101,0.15813 0,0.009 0.0031,0.009 0.0062,0 0.244946,-0.0744 0.279053,-0.0837 0.449585,-0.13332 0.173633,-0.0527 0.204639,-0.0527 0.04031,0 0.04031,0.0217 v 0.0124 q 0,0.0372 -0.0186,0.0372 -0.533301,0.15813 -0.973584,0.32246 -0.244947,0.73484 -0.570508,1.29295 -0.325562,0.5581 -0.818555,1.0511 -0.799951,0.79065 -1.513086,0.79065 z m -0.111621,-0.27906 q 0.124024,0 0.328662,-0.11782 0.201538,-0.11782 0.375171,-0.30076 0.375171,-0.35966 0.787549,-1.12861 0.111621,-0.19844 0.254248,-0.48369 0.142627,-0.28836 0.142627,-0.32556 l -0.0031,-0.003 h -0.0031 q -0.04031,0 -0.42168,0.23564 -0.381372,0.23565 -0.576709,0.38447 -0.533301,0.40618 -0.803052,0.78135 -0.269751,0.37207 -0.269751,0.66663 0,0.13022 0.05581,0.21084 0.05271,0.0806 0.133325,0.0806 z"
       id="text1"
       aria-label="Phantom Proxy" />
  </g>
</svg>
